:SAMPLES-PER-SECOND 30
:FULLY-SPECIFIED
:DEGREES
48
root  56.3816 39.4963 -1.55579 -143.537 -82.6144 140.676
RightUpLeg  -16.169 1.53531 -8.77309
RightLeg  60.845 -1.44288 -3.31124
RightFoot  9.16885 -0.703821 4.25162
RightToes  8.73114e-010 0 -3.6325e-017
Spine  6.08609 -0.588495 -4.434
Spine1  11.7422 -0.288496 -2.44708
HEad  -14.6955 6.66342 -6.96477
LeftShoulder1  10.0433 -13.7834 -50.7138
LeftArm  -7.37741 9.51676 -22.5539
LeftForeArm  26.6484 -7.89597 -6.32048
LeftHand  -0.244104 0.0205437 5.32207
RightShoulder  7.42689 11.0819 44.4495
RightArm  18.3455 -8.88629 32.6925
RightForeArm  -0.779204 20.731 5.46214
RightHand  -0.652907 0.714174 -12.5034
LeftUpLeg  -5.86683 10.9626 -6.87771
LeftLeg  15.6579 6.62741 -0.475472
LeftFoot  -9.92226 0.0496404 0.818378
LeftToes  -7.64008e-011 1.13257e-010 -2.15718e-012
49
root  55.0804 39.6694 -1.39401 -146.425 -83.6127 143.462
RightUpLeg  -19.8079 0.300394 -6.97459
RightLeg  56.7147 -2.20041 -4.03924
RightFoot  6.72068 -0.838123 5.53496
RightToes  8.73114e-010 0 -3.6325e-017
Spine  7.07183 -1.13773 -4.01693
Spine1  10.7633 -1.02525 -2.0671
HEad  -14.7537 6.74379 -6.58276
LeftShoulder1  9.91359 -13.7027 -50.298
LeftArm  -7.37444 9.25257 -23.1445
LeftForeArm  25.2131 -10.3189 -6.10968
LeftHand  -0.244104 0.0205437 5.32207
RightShoulder  7.41628 11.1536 44.1552
RightArm  17.5381 -11.8992 32.1967
RightForeArm  -0.105324 19.5404 5.89851
RightHand  -0.6809 0.72443 -13.0161
LeftUpLeg  -2.27834 7.9313 -5.38882
LeftLeg  13.3788 8.89483 -1.94505
LeftFoot  -10.9181 0.0643365 0.392119
LeftToes  -7.64008e-011 1.13257e-010 -2.15718e-012
50
root  53.763 39.7483 -1.24746 -148.298 -84.5989 145.074
RightUpLeg  -22.1606 -1.46563 -5.00007
RightLeg  49.737 -3.10059 -4.26817
RightFoot  4.92062 -0.644383 4.72961
RightToes  8.73114e-010 0 -3.6325e-017
Spine  8.17171 -1.60878 -3.85439
Spine1  9.94135 -1.73784 -1.39239
HEad  -14.9756 6.71684 -6.07727
LeftShoulder1  9.7968 -13.6162 -49.9596
LeftArm  -6.52251 8.84591 -23.8464
LeftForeArm  22.6107 -13.4704 -5.60121
LeftHand  -0.244104 0.0205437 5.32207
RightShoulder  7.39321 11.1934 43.8855
RightArm  14.7473 -14.3676 31.5257
RightForeArm  1.54425 17.5032 6.71353
RightHand  -0.640467 0.413581 -12.8753
LeftUpLeg  1.13513 5.91849 -4.46782
LeftLeg  11.5279 10.0278 -3.06296
LeftFoot  -11.9896 0.0743222 0.377366
LeftToes  -7.64008e-011 1.13257e-010 -2.15718e-012
51
root  52.4014 39.6937 -1.12831 -146.471 -85.4451 142.992
RightUpLeg  -23.1538 -4.14161 -3.14321
RightLeg  40.0359 -3.78605 -3.67987
RightFoot  2.84314 -0.50283 4.21523
RightToes  8.73114e-010 0 -3.6325e-017
Spine  8.82325 -1.92377 -4.05636
Spine1  9.77961 -2.28923 -0.648622
HEad  -15.5511 6.43598 -5.64733
LeftShoulder1  9.75511 -13.5902 -49.823
LeftArm  -4.87411 7.79599 -24.3816
LeftForeArm  20.2034 -16.6637 -4.94388
LeftHand  -0.244104 0.0205437 5.32207
RightShoulder  7.3352 11.1323 43.7142
RightArm  9.7457 -16.1805 30.7188
RightForeArm  5.09947 14.7481 7.6007
RightHand  -0.585035 0.0525635 -12.5252
LeftUpLeg  4.0964 5.04868 -4.15511
LeftLeg  10.6762 10.0355 -3.64057
LeftFoot  -13.5178 0.0932907 0.624122
LeftToes  -7.64008e-011 1.13257e-010 -2.15718e-012
52
root  50.9607 39.5304 -1.03482 -140.344 -85.9371 136.8
RightUpLeg  -23.2181 -8.21933 -1.143
RightLeg  28.1756 -3.57019 -2.46996
RightFoot  1.92276 -0.587572 5.15277
RightToes  8.73114e-010 0 -3.6325e-017
Spine  8.86514 -2.03424 -4.48408
Spine1  9.99867 -2.58106 0.0547397
HEad  -16.1435 5.90126 -5.24312
LeftShoulder1  9.72168 -13.5586 -49.7445
LeftArm  -3.13431 6.23088 -24.7999
LeftForeArm  19.0056 -19.3546 -4.37143
LeftHand  -0.244104 0.0205437 5.32207
RightShoulder  7.23755 10.9771 43.5883
RightArm  3.73412 -17.513 29.9433
RightForeArm  9.22026 11.3223 8.16397
RightHand  -0.579622 -0.0135785 -12.554
LeftUpLeg  6.78292 4.71847 -4.29192
LeftLeg  10.2876 9.69035 -3.92774
LeftFoot  -15.1532 0.122934 0.962289
LeftToes  -7.64008e-011 1.13257e-010 -2.15718e-012
53
root  49.4553 39.3059 -0.955493 -131.954 -86.0984 128.397
RightUpLeg  -22.6897 -12.1415 0.626774
RightLeg  15.9735 -3.39957 -0.503493
RightFoot  2.16879 -0.684571 5.90002
RightToes  8.73114e-010 0 -3.6325e-017
Spine  8.83029 -2.01371 -4.83798
Spine1  10.0322 -2.69898 0.726576
HEad  -16.4249 5.32889 -4.79076
LeftShoulder1  9.67394 -13.4897 -49.7009
LeftArm  -1.95042 4.70653 -25.1215
LeftForeArm  18.9632 -21.5278 -4.02437
LeftHand  -0.244104 0.0205437 5.32207
RightShoulder  7.14189 10.7929 43.5656
RightArm  -1.36157 -18.5406 29.2559
RightForeArm  11.8651 7.59588 7.97014
RightHand  -0.587297 -0.0093964 -12.7102
LeftUpLeg  9.67857 4.70779 -4.53313
LeftLeg  9.58988 9.02012 -4.29121
LeftFoot  -16.6497 0.152896 1.15
LeftToes  -7.64008e-011 1.13257e-010 -2.15718e-012
54
root  47.8863 38.9913 -0.88895 -120.706 -86.1711 116.932
RightUpLeg  -21.4861 -9.42802 -0.768155
RightLeg  6.33077 -8.17872 2.90027
RightFoot  1.61278 -0.67396 6.03186
RightToes  8.73114e-010 0 -3.6325e-017
Spine  9.1122 -2.03705 -4.98979
Spine1  9.75516 -2.82071 1.2155
HEad  -16.4393 4.76604 -4.39578
LeftShoulder1  9.67181 -13.4708 -49.745
LeftArm  -1.84174 3.60933 -25.3457
LeftForeArm  19.7632 -23.3367 -3.98349
LeftHand  -0.244104 0.0205437 5.32207
RightShoulder  7.08928 10.6565 43.6664
RightArm  -4.46938 -19.3456 28.702
RightForeArm  12.0826 4.33684 7.05305
RightHand  -0.542158 -0.40031 -12.6199
LeftUpLeg  12.7077 5.07425 -4.59086
LeftLeg  9.33522 7.69519 -4.66568
LeftFoot  -18.3871 0.180176 1.13315
LeftToes  -7.64008e-011 1.13257e-010 -2.15718e-012
55
root  46.2397 38.63 -0.832663 -104.082 -86.4801 100.004
RightUpLeg  -20.9016 -5.57318 -2.27041
RightLeg  1.89394 -11.3663 4.86375
RightFoot  0.29585 -0.60401 5.91181
RightToes  8.73114e-010 0 -3.6325e-017
Spine  9.36749 -2.26885 -4.5727
Spine1  9.57717 -3.1299 1.57716
HEad  -16.4265 4.22603 -4.27366
LeftShoulder1  9.72577 -13.5309 -49.8457
LeftArm  -2.77705 3.07106 -25.6183
LeftForeArm  21.0679 -24.9142 -4.21531
LeftHand  -0.244104 0.0205437 5.32207
RightShoulder  7.05546 10.5816 43.6901
RightArm  -6.9386 -19.9831 28.2991
RightForeArm  11.567 2.01986 6.14926
RightHand  -0.48122 -0.97147 -12.5974
LeftUpLeg  15.4618 5.99591 -4.06929
LeftLeg  10.2095 5.63283 -4.6261
LeftFoot  -19.9977 0.213366 1.22946
LeftToes  -7.64008e-011 1.13257e-010 -2.15718e-012
56
root  44.5074 38.3334 -0.776182 -78.0729 -87.0288 73.9094
RightUpLeg  -21.5057 -5.56527 -1.33669
RightLeg  3.75774 -10.4058 3.91958
RightFoot  0.5738 -0.406412 3.99374
RightToes  8.73114e-010 0 -3.6325e-017
Spine  9.06845 -2.71746 -3.06866
Spine1  9.82053 -3.62835 1.85376
HEad  -16.3727 3.77448 -4.51686
LeftShoulder1  9.78373 -13.5646 -50.0426
LeftArm  -3.96744 3.2431 -25.9848
LeftForeArm  22.3245 -26.5003 -4.49794
LeftHand  -0.244104 0.0205437 5.32207
RightShoulder  6.99939 10.5073 43.5665
RightArm  -8.39999 -20.4942 27.9494
RightForeArm  10.7205 1.00112 5.62743
RightHand  -0.493457 -1.01678 -13.0348
LeftUpLeg  17.7079 7.83398 -2.57631
LeftLeg  11.9756 2.65741 -3.81523
LeftFoot  -20.8236 0.218815 1.14705
LeftToes  -7.64008e-011 1.13257e-010 -2.15718e-012
57
root  42.6631 38.1397 -0.702956 -43.3146 -87.477 39.153
RightUpLeg  -22.5661 -7.85754 1.30439
RightLeg  9.23009 -8.35447 1.79606
RightFoot  3.46341 0.0981847 -0.480169
RightToes  8.73114e-010 0 -3.6325e-017
Spine  8.29592 -3.18334 -0.102547
Spine1  10.2745 -3.91201 1.56567
HEad  -16.0429 3.42485 -5.00677
LeftShoulder1  9.83538 -13.5018 -50.4884
LeftArm  -4.99778 4.3416 -26.2173
LeftForeArm  23.5291 -28.2449 -4.82189
LeftHand  -0.244104 0.0205437 5.32207
RightShoulder  6.94999 10.4016 43.5893
RightArm  -8.62136 -20.7732 27.3675
RightForeArm  10.1573 1.0773 5.56152
RightHand  -0.568045 -0.5151 -13.526
LeftUpLeg  19.629 10.5106 -0.0647027
LeftLeg  14.4022 -1.20914 -2.46108
LeftFoot  -20.7882 0.0745184 -0.572586
LeftToes  -7.64008e-011 1.13257e-010 -2.15718e-012
58
root  40.7484 38.0373 -0.619846 -5.43582 -87.8584 1.09567
RightUpLeg  -23.5 -11.4645 4.99187
RightLeg  15.4614 -4.64014 -0.456787
RightFoot  6.09225 0.836022 -5.24132
RightToes  8.73114e-010 0 -3.6325e-017
Spine  7.60176 -3.34938 4.12639
Spine1  10.5891 -3.52236 0.363988
HEad  -15.2893 3.12702 -5.54285
LeftShoulder1  9.89095 -13.3941 -51.0879
LeftArm  -5.74029 6.43123 -26.2893
LeftForeArm  24.5691 -29.9395 -5.15409
LeftHand  -0.244104 0.0205437 5.32207
RightShoulder  6.9543 10.3229 43.8791
RightArm  -8.15536 -20.5042 26.6945
RightForeArm  10.4615 1.57245 5.71788
RightHand  -0.602298 -0.144572 -13.3533
LeftUpLeg  20.6733 12.4726 2.73778
LeftLeg  18.5583 -4.18726 -1.42426
LeftFoot  -18.8834 -0.185154 -4.69681
LeftToes  -7.64008e-011 1.13257e-010 -2.15718e-012
